# Blender v2.83.3 OBJ File: 'pallet.blend'
# www.blender.org
mtllib pallet LOD01.mtl
o Pallet_low_Cube.037
v 1.619195 0.135863 -2.399817
v 1.609136 0.209461 -2.399817
v 1.619197 0.135863 2.581304
v 1.619197 0.209461 2.581304
v 1.260985 0.135863 -2.399817
v 1.260985 0.209461 -2.399817
v 1.260987 0.135863 2.581304
v 1.260987 0.209461 2.581304
v -1.288365 0.209462 2.581304
v -1.288365 0.135863 2.581304
v -1.288365 0.209462 -2.399817
v -1.288365 0.135863 -2.399817
v -1.646575 0.209461 2.581304
v -1.646575 0.135863 2.581304
v -1.636083 0.209461 -2.399817
v -1.623267 0.135863 -2.399817
v 1.153987 0.135863 -2.399817
v 1.153987 0.209462 -2.399817
v 1.153989 0.135863 2.581304
v 1.153989 0.209462 2.581304
v 0.795779 0.135863 -2.399817
v 0.795779 0.209462 -2.399817
v 0.848750 0.135863 2.581304
v 0.795779 0.209462 2.581304
v -0.163479 0.135863 2.581304
v -0.153420 0.209462 2.581304
v -0.163479 0.135863 -2.399817
v -0.163479 0.209462 -2.399817
v 0.194731 0.135863 2.581304
v 0.194731 0.209462 2.581304
v 0.194731 0.135863 -2.399817
v 0.194731 0.209462 -2.399817
v -0.318935 0.209461 2.581304
v -0.318935 0.135863 2.581304
v -0.318935 0.209461 -2.399817
v -0.318935 0.135863 -2.399817
v -0.677144 0.209462 2.581304
v -0.677144 0.135863 2.581304
v -0.635985 0.209462 -2.399817
v -0.677144 0.135863 -2.399817
v 0.700407 0.209462 2.581304
v 0.700407 0.135863 2.581304
v 0.700407 0.209462 -2.399817
v 0.700407 0.135863 -2.399817
v 0.342199 0.209462 2.581304
v 0.342199 0.135863 2.581304
v 0.352689 0.209462 -2.399817
v 0.365507 0.135863 -2.399817
v -1.284321 -0.299562 -2.390567
v -1.284321 0.066088 -2.390567
v -1.284321 -0.299562 -2.023363
v -1.284321 0.066088 -2.023363
v -1.642530 -0.299562 -2.390567
v -1.642530 0.066088 -2.390567
v -1.642530 -0.299562 -2.023363
v -1.642530 0.066088 -2.023363
v 1.613382 -0.299562 -2.023363
v 1.613382 0.066088 -2.023363
v 1.255173 -0.299562 -2.023363
v 1.255173 0.066088 -2.023363
v 1.613382 -0.299562 -2.390567
v 1.613382 0.066088 -2.390567
v 1.255173 -0.299562 -2.390567
v 1.255173 0.066088 -2.390567
v -1.642495 -0.299562 2.572497
v -1.642495 0.066088 2.572497
v -1.642565 -0.299562 2.205293
v -1.642565 0.066088 2.205293
v -1.284286 -0.299562 2.572426
v -1.284286 0.066088 2.572426
v -1.284356 -0.299562 2.205222
v -1.284356 0.066088 2.205222
v 1.255206 -0.299562 2.572497
v 1.255206 0.066088 2.572497
v 1.255138 -0.299562 2.205293
v 1.255138 0.066088 2.205293
v 1.613416 -0.299562 2.572426
v 1.613416 0.066088 2.572426
v 1.613346 -0.299562 2.205222
v 1.613346 0.066088 2.205222
v -1.284321 -0.299562 0.279563
v -1.284321 0.066088 0.279563
v -1.642530 -0.299562 0.279563
v -1.642530 0.066088 0.279563
v -1.284321 -0.299562 -0.087642
v -1.284321 0.066088 -0.087642
v -1.642530 -0.299562 -0.087642
v -1.642530 0.066088 -0.087642
v -0.178159 -0.299562 -2.023363
v -0.178159 0.066088 -2.023363
v -0.178159 -0.299562 -2.390567
v -0.178159 0.066088 -2.390567
v 0.180050 -0.299562 -2.023363
v 0.180050 0.066088 -2.023363
v 0.180050 -0.299562 -2.390567
v 0.180050 0.066088 -2.390567
v -0.178158 -0.299562 2.572462
v -0.178158 0.066088 2.572462
v -0.178158 -0.299562 2.205258
v -0.178158 0.066088 2.205258
v 0.180050 -0.299562 2.572462
v 0.180050 0.066088 2.572462
v 0.180050 -0.299562 2.205258
v 0.180050 0.066088 2.205258
v 0.180050 -0.299562 0.279563
v 0.180050 0.066088 0.279563
v -0.178158 -0.299562 0.279563
v -0.178158 0.066088 0.279563
v 0.180050 -0.299562 -0.087642
v 0.180050 0.066088 -0.087642
v -0.178158 -0.299562 -0.087642
v -0.178158 0.066088 -0.087642
v -1.288365 -0.298859 2.581304
v -1.288365 -0.372458 2.581304
v -1.288365 -0.298859 -2.399817
v -1.288365 -0.372458 -2.399817
v -1.646575 -0.298859 2.581304
v -1.646575 -0.372458 2.581304
v -1.646574 -0.298859 -2.399817
v -1.646574 -0.372458 -2.399817
v 0.175133 -0.372458 -2.399817
v 0.175133 -0.298859 -2.399817
v 0.175135 -0.372458 2.581304
v 0.175135 -0.298859 2.581304
v -0.183077 -0.372458 -2.399817
v -0.183077 -0.298859 -2.399817
v -0.151031 -0.372458 2.581304
v -0.183075 -0.298859 2.581304
v -0.183075 -0.292734 2.581304
v 1.619235 -0.298859 2.581304
v 1.619235 -0.372458 2.581304
v 1.619235 -0.298859 -2.399817
v 1.619235 -0.372458 -2.399817
v 1.261025 -0.298859 2.581304
v 1.261025 -0.372458 2.581304
v 1.261025 -0.298859 -2.399817
v 1.261025 -0.372458 -2.399817
v 1.646998 0.132972 -0.095581
v 1.646998 0.059374 -0.095581
v -1.680429 0.132972 -0.070624
v -1.680429 0.059374 -0.070624
v 1.646998 0.132972 0.319836
v 1.646998 0.059374 0.319836
v -1.680429 0.132972 0.292806
v -1.680429 0.059374 0.292806
v 1.623568 0.052546 -1.979730
v 1.623568 0.126144 -1.991791
v -1.662907 0.052546 -1.979730
v -1.662907 0.126144 -1.979730
v 1.623568 0.052546 -2.409298
v 1.623568 0.126144 -2.409298
v -1.651493 0.052546 -2.409298
v -1.651493 0.126144 -2.409298
v 1.623568 0.062524 2.576108
v 1.623568 0.136122 2.564046
v -1.644883 0.062524 2.576108
v -1.644883 0.136122 2.576108
v 1.648979 0.062524 2.146540
v 1.648979 0.136122 2.146540
v -1.665565 0.062524 2.146540
v -1.665565 0.136122 2.146540
v 1.604393 -0.299562 0.279563
v 1.604393 0.066088 0.279563
v 1.246185 -0.299562 0.279563
v 1.246185 0.066088 0.279563
v 1.604393 -0.299562 -0.087642
v 1.604393 0.066088 -0.087642
v 1.246185 -0.299562 -0.087642
v 1.246185 0.066088 -0.087642
v -1.149475 0.135863 2.581304
v -1.139416 0.209462 2.581304
v -1.149475 0.135863 -2.399817
v -1.149475 0.209462 -2.399817
v -0.791266 0.135863 2.581304
v -0.791266 0.209462 2.581304
v -0.791266 0.135863 -2.399817
v -0.791266 0.209462 -2.399817
vt 0.015605 0.010741
vt 0.054850 0.003128
vt 0.056173 0.011571
vt 0.011221 0.576753
vt 0.061274 0.576696
vt 0.052839 0.576657
vt 0.007191 0.010586
vt 0.102879 0.577190
vt 0.064793 0.011640
vt 0.103863 0.011185
vt 0.011241 0.585130
vt 0.015777 0.002329
vt 0.002838 0.576865
vt 0.052858 0.585034
vt 0.260164 0.011272
vt 0.301672 0.002329
vt 0.301785 0.010707
vt 0.214002 0.576336
vt 0.251543 0.011158
vt 0.249576 0.576420
vt 0.257987 0.576465
vt 0.293519 0.585053
vt 0.257944 0.584868
vt 0.310156 0.010842
vt 0.299734 0.576674
vt 0.260050 0.002887
vt 0.209886 0.010323
vt 0.310156 0.576748
vt 0.820374 0.010668
vt 0.861192 0.576284
vt 0.819490 0.576158
vt 0.911024 0.010732
vt 0.919079 0.576400
vt 0.911292 0.576258
vt 0.911027 0.002345
vt 0.870524 0.010717
vt 0.869357 0.002329
vt 0.869578 0.576308
vt 0.862052 0.010684
vt 0.869589 0.584705
vt 0.918879 0.010758
vt 0.911303 0.584654
vt 0.362513 0.011289
vt 0.319430 0.576553
vt 0.322072 0.010714
vt 0.361141 0.002882
vt 0.369594 0.576398
vt 0.361153 0.576379
vt 0.361188 0.584778
vt 0.371134 0.011276
vt 0.411316 0.576759
vt 0.313685 0.010611
vt 0.322192 0.002329
vt 0.319465 0.584951
vt 0.410176 0.010485
vt 0.311032 0.576546
vt 0.010043 0.677805
vt 0.001580 0.636104
vt 0.009976 0.636091
vt 0.575599 0.628365
vt 0.575568 0.636836
vt 0.010107 0.586003
vt 0.575600 0.586686
vt 0.010057 0.686207
vt 0.575568 0.677336
vt 0.575584 0.685729
vt 0.583956 0.677336
vt 0.583956 0.635666
vt 0.001647 0.677818
vt 0.009997 0.627706
vt 0.155550 0.576106
vt 0.190921 0.584755
vt 0.155454 0.584511
vt 0.206214 0.010674
vt 0.197260 0.576583
vt 0.199320 0.010697
vt 0.111602 0.576192
vt 0.149215 0.011168
vt 0.147080 0.576068
vt 0.157792 0.011279
vt 0.197742 0.002175
vt 0.206214 0.576570
vt 0.107967 0.010540
vt 0.157673 0.002920
vt 0.055756 0.734538
vt 0.097446 0.776228
vt 0.055756 0.776228
vt 0.139135 0.692849
vt 0.097446 0.734539
vt 0.097446 0.692849
vt 0.180825 0.776228
vt 0.139135 0.734538
vt 0.180825 0.734538
vt 0.097446 0.817918
vt 0.139135 0.776228
vt 0.139135 0.817918
vt 0.222514 0.776228
vt 0.222514 0.734538
vt 0.363804 0.785490
vt 0.405493 0.827179
vt 0.363804 0.827180
vt 0.447183 0.743800
vt 0.405493 0.785490
vt 0.405493 0.743800
vt 0.488873 0.827179
vt 0.447183 0.785490
vt 0.488873 0.785490
vt 0.405493 0.868869
vt 0.447183 0.827179
vt 0.447183 0.868869
vt 0.447183 0.702111
vt 0.405493 0.702111
vt 0.054209 0.910836
vt 0.095898 0.952526
vt 0.054209 0.952526
vt 0.137588 0.869147
vt 0.095898 0.910836
vt 0.095898 0.869147
vt 0.179278 0.952526
vt 0.137588 0.910836
vt 0.179278 0.910836
vt 0.095898 0.994215
vt 0.137588 0.952526
vt 0.137588 0.994215
vt 0.012519 0.910836
vt 0.012519 0.952526
vt 0.316512 0.820388
vt 0.358201 0.778699
vt 0.358201 0.820388
vt 0.274822 0.737009
vt 0.316512 0.778698
vt 0.274822 0.778698
vt 0.358202 0.695319
vt 0.316512 0.737009
vt 0.316512 0.695319
vt 0.399891 0.778699
vt 0.358202 0.737009
vt 0.399891 0.737009
vt 0.316512 0.862077
vt 0.358201 0.862078
vt 0.577444 0.779899
vt 0.535755 0.738209
vt 0.577444 0.738209
vt 0.494065 0.821588
vt 0.535755 0.779899
vt 0.535755 0.821588
vt 0.452376 0.738209
vt 0.494065 0.779899
vt 0.452376 0.779899
vt 0.535755 0.696519
vt 0.494065 0.738209
vt 0.494065 0.696520
vt 0.535755 0.863277
vt 0.494065 0.863277
vt 0.268819 0.743757
vt 0.227130 0.785446
vt 0.227130 0.743757
vt 0.310509 0.827136
vt 0.268820 0.785446
vt 0.310509 0.785446
vt 0.227130 0.868825
vt 0.268820 0.827136
vt 0.268820 0.868825
vt 0.185440 0.785446
vt 0.227130 0.827136
vt 0.185440 0.827136
vt 0.268820 0.702067
vt 0.227130 0.702067
vt 0.838519 0.641263
vt 0.880208 0.682952
vt 0.838519 0.682952
vt 0.921898 0.599573
vt 0.880208 0.641263
vt 0.880208 0.599573
vt 0.963588 0.682952
vt 0.921898 0.641263
vt 0.963588 0.641263
vt 0.880208 0.724642
vt 0.921898 0.682952
vt 0.921898 0.724642
vt 0.796829 0.641263
vt 0.796829 0.682952
vt 0.092849 0.780035
vt 0.051160 0.821724
vt 0.051160 0.780035
vt 0.134538 0.863414
vt 0.092849 0.821724
vt 0.134539 0.821725
vt 0.051159 0.905103
vt 0.092849 0.863414
vt 0.092849 0.905104
vt 0.009470 0.821724
vt 0.051160 0.863414
vt 0.009470 0.863414
vt 0.176228 0.821725
vt 0.176228 0.863414
vt 0.463943 0.002360
vt 0.422261 0.010718
vt 0.422267 0.002329
vt 0.463937 0.010749
vt 0.421742 0.576388
vt 0.471867 0.576166
vt 0.463435 0.576158
vt 0.413873 0.010727
vt 0.421788 0.584780
vt 0.463481 0.584550
vt 0.472252 0.010755
vt 0.513560 0.576467
vt 0.413350 0.576392
vt 0.513929 0.010786
vt 0.564784 0.576297
vt 0.602782 0.584743
vt 0.564774 0.584699
vt 0.565765 0.010971
vt 0.607330 0.002329
vt 0.607383 0.010707
vt 0.606526 0.576346
vt 0.615755 0.010797
vt 0.615715 0.576306
vt 0.518394 0.576199
vt 0.557272 0.010873
vt 0.556400 0.576280
vt 0.565712 0.002594
vt 0.515619 0.010512
vt 0.726721 0.584695
vt 0.768435 0.576249
vt 0.768445 0.584647
vt 0.768435 0.010775
vt 0.726712 0.576297
vt 0.726711 0.010727
vt 0.776787 0.576245
vt 0.818506 0.010755
vt 0.818506 0.576270
vt 0.768444 0.002377
vt 0.726721 0.002329
vt 0.718313 0.010714
vt 0.718314 0.576311
vt 0.776786 0.010779
vt 0.996774 0.938769
vt 0.989570 0.896794
vt 0.998054 0.897054
vt 0.593210 0.939235
vt 0.601608 0.892039
vt 0.601607 0.939235
vt 0.988291 0.938508
vt 0.988303 0.947487
vt 0.601714 0.994923
vt 0.601611 0.947727
vt 0.990210 0.888296
vt 0.593211 0.892039
vt 0.989746 0.989180
vt 0.601608 0.883635
vt 0.986222 0.762923
vt 0.996004 0.811453
vt 0.987616 0.811692
vt 0.596600 0.763751
vt 0.605222 0.811151
vt 0.596830 0.812562
vt 0.604999 0.763711
vt 0.605188 0.819705
vt 0.986279 0.868870
vt 0.605010 0.868523
vt 0.986222 0.754530
vt 0.987616 0.820096
vt 0.994610 0.762683
vt 0.604918 0.755310
vt 0.595321 0.982387
vt 0.583751 0.935526
vt 0.592039 0.933597
vt 0.201122 0.983826
vt 0.203454 0.935051
vt 0.583784 0.926973
vt 0.201046 0.877873
vt 0.586913 0.878165
vt 0.586942 0.982951
vt 0.201124 0.992218
vt 0.195072 0.934650
vt 0.203453 0.926647
vt 0.587022 0.991352
vt 0.192740 0.983425
vt 0.691589 0.599623
vt 0.649899 0.641312
vt 0.649899 0.599623
vt 0.733278 0.683002
vt 0.691589 0.641312
vt 0.733278 0.641312
vt 0.649899 0.724691
vt 0.691589 0.683002
vt 0.691589 0.724691
vt 0.608209 0.641312
vt 0.649899 0.683002
vt 0.608209 0.683002
vt 0.774968 0.641312
vt 0.774968 0.683002
vt 0.624352 0.010776
vt 0.666084 0.002350
vt 0.666089 0.010751
vt 0.624905 0.585617
vt 0.665499 0.577216
vt 0.666670 0.585624
vt 0.673989 0.577248
vt 0.624906 0.577210
vt 0.615945 0.010782
vt 0.715762 0.577255
vt 0.674508 0.010749
vt 0.716250 0.010749
vt 0.624347 0.002374
vt 0.616494 0.577224
vn 0.5773 0.5773 -0.5773
vn -0.5196 -0.6198 -0.5881
vn -0.6280 0.5296 -0.5701
vn 0.5773 0.5773 0.5773
vn -0.5780 -0.5772 0.5768
vn -0.5780 0.5772 0.5768
vn 0.5773 -0.5773 -0.5773
vn 0.5773 -0.5773 0.5773
vn -0.5773 -0.5773 -0.5773
vn -0.5773 0.5773 -0.5773
vn -0.3561 -0.6998 0.6192
vn -0.7394 0.3814 0.5548
vn -0.5773 -0.5773 0.5773
vn -0.5773 0.5773 0.5773
vn 0.5327 0.6112 -0.5853
vn 0.6182 -0.5401 -0.5711
vn -0.6182 -0.5401 0.5711
vn -0.5327 0.6112 0.5853
vn -0.3991 0.6840 -0.6106
vn -0.7150 -0.4216 -0.5577
vn -0.5774 0.5773 -0.5772
vn -0.5772 -0.5773 0.5774
vn -0.5772 0.5773 0.5774
vn 0.5772 0.5773 -0.5774
vn -0.5774 -0.5773 -0.5772
vn 0.5774 0.5773 0.5772
vn 0.5772 -0.5773 -0.5774
vn 0.5774 -0.5773 0.5772
vn -0.4358 -0.6678 0.6034
vn -0.6917 0.4551 0.5607
vn -0.5795 -0.5778 0.5748
vn -0.5793 0.5777 -0.5750
vn -0.5793 -0.5777 -0.5750
vn 0.5752 -0.5769 0.5799
vn 0.5754 0.5770 -0.5797
vn 0.5752 0.5769 0.5799
vn -0.5795 0.5778 0.5748
vn 0.5754 -0.5770 -0.5797
vn -0.5689 0.5788 -0.5842
vn -0.5857 -0.5759 0.5703
vn -0.5856 0.5760 0.5703
vn 0.5872 0.6175 0.5233
vn 0.5703 -0.5325 0.6254
vn -0.5689 -0.5788 -0.5842
vn 0.5962 -0.5742 -0.5611
vn 0.5670 0.6222 0.5398
vn 0.5525 -0.5345 0.6395
vn -0.5923 0.5748 -0.5645
vn -0.5620 0.5799 0.5897
vn -0.5923 -0.5748 -0.5645
vn 0.5962 0.5742 -0.5610
vn -0.5620 -0.5799 0.5897
g Pallet_low_Cube.037_pallet_clean
usemtl pallet_clean
s 1
f 11/1/1 16/2/2 15/3/3
f 15/3/3 9/4/4 11/1/1
f 15/3/3 14/5/5 13/6/6
f 9/4/4 12/7/7 11/1/1
f 10/8/8 16/9/2 12/10/7
f 13/6/6 10/11/8 9/4/4
f 11/1/1 12/12/7 16/2/2
f 15/3/3 13/6/6 9/4/4
f 15/3/3 16/9/2 14/5/5
f 9/4/4 10/13/8 12/7/7
f 10/8/8 14/5/5 16/9/2
f 13/6/6 14/14/5 10/11/8
s 2
f 18/15/1 21/16/9 22/17/10
f 23/18/11 17/19/7 19/20/8
f 20/21/4 23/22/11 19/23/8
f 21/24/9 24/25/12 22/17/10
f 20/21/4 17/19/7 18/15/1
f 18/15/1 24/25/12 20/21/4
f 18/15/1 17/26/7 21/16/9
f 23/18/11 21/27/9 17/19/7
f 20/21/4 24/25/12 23/22/11
f 21/24/9 23/28/11 24/25/12
f 20/21/4 19/20/8 17/19/7
f 18/15/1 22/17/10 24/25/12
s 3
f 5/29/9 3/30/8 7/31/13
f 6/32/10 7/33/13 8/34/14
f 5/35/9 2/36/15 1/37/16
f 4/38/4 1/39/16 2/36/15
f 8/34/14 3/40/8 4/38/4
f 2/36/15 8/34/14 4/38/4
f 5/29/9 1/39/16 3/30/8
f 6/32/10 5/41/9 7/33/13
f 5/35/9 6/32/10 2/36/15
f 4/38/4 3/30/8 1/39/16
f 8/34/14 7/42/13 3/40/8
f 2/36/15 6/32/10 8/34/14
s 4
f 47/43/3 41/44/4 43/45/1
f 43/45/1 48/46/2 47/43/3
f 47/43/3 46/47/5 45/48/6
f 46/49/5 41/44/4 45/48/6
f 48/50/2 42/51/8 46/47/5
f 41/44/4 44/52/7 43/45/1
f 47/43/3 45/48/6 41/44/4
f 43/45/1 44/53/7 48/46/2
f 47/43/3 48/50/2 46/47/5
f 46/49/5 42/54/8 41/44/4
f 48/50/2 44/55/7 42/51/8
f 41/44/4 42/56/8 44/52/7
s 5
f 32/57/1 27/58/9 28/59/10
f 28/59/10 25/60/17 26/61/18
f 26/61/18 32/57/1 28/59/10
f 25/60/17 31/62/7 29/63/8
f 31/64/7 30/65/4 29/66/8
f 29/67/8 26/61/18 25/68/17
f 32/57/1 31/69/7 27/58/9
f 28/59/10 27/70/9 25/60/17
f 26/61/18 30/65/4 32/57/1
f 25/60/17 27/70/9 31/62/7
f 31/64/7 32/57/1 30/65/4
f 29/67/8 30/65/4 26/61/18
s 6
f 36/71/7 39/72/19 35/73/1
f 37/74/14 40/75/20 38/76/13
f 39/77/19 33/78/4 35/79/1
f 38/76/13 36/71/7 34/80/8
f 34/80/8 37/81/14 38/76/13
f 36/71/7 33/78/4 34/80/8
f 36/71/7 40/75/20 39/72/19
f 37/74/14 39/82/19 40/75/20
f 39/77/19 37/83/14 33/78/4
f 38/76/13 40/75/20 36/71/7
f 34/80/8 33/84/4 37/81/14
f 36/71/7 35/79/1 33/78/4
s 7
f 52/85/4 49/86/7 50/87/1
f 56/88/14 51/89/8 52/90/4
f 54/91/10 55/92/13 56/93/14
f 50/94/1 53/95/9 54/96/10
f 53/95/9 51/89/8 55/92/13
f 50/97/1 56/93/14 52/98/4
f 52/85/4 51/89/8 49/86/7
f 56/88/14 55/92/13 51/89/8
f 54/91/10 53/95/9 55/92/13
f 50/94/1 49/86/7 53/95/9
f 53/95/9 49/86/7 51/89/8
f 50/97/1 54/91/10 56/93/14
s 8
f 60/99/14 57/100/8 58/101/4
f 64/102/10 59/103/13 60/104/14
f 62/105/1 63/106/9 64/107/10
f 58/108/4 61/109/7 62/110/1
f 61/109/7 59/103/13 63/106/9
f 60/104/14 62/111/1 64/102/10
f 60/99/14 59/103/13 57/100/8
f 64/102/10 63/106/9 59/103/13
f 62/105/1 61/109/7 63/106/9
f 58/108/4 57/100/8 61/109/7
f 61/109/7 57/100/8 59/103/13
f 60/104/14 58/112/4 62/111/1
s 9
f 68/113/21 65/114/22 66/115/23
f 72/116/24 67/117/25 68/118/21
f 70/119/26 71/120/27 72/121/24
f 66/122/23 69/123/28 70/124/26
f 71/120/27 65/114/22 67/117/25
f 72/125/24 66/115/23 70/126/26
f 68/113/21 67/117/25 65/114/22
f 72/116/24 71/120/27 67/117/25
f 70/119/26 69/123/28 71/120/27
f 66/122/23 65/114/22 69/123/28
f 71/120/27 69/123/28 65/114/22
f 72/125/24 68/113/21 66/115/23
s 10
f 76/127/21 73/128/22 74/129/23
f 80/130/24 75/131/25 76/132/21
f 78/133/26 79/134/27 80/135/24
f 74/136/23 77/137/28 78/138/26
f 77/137/28 75/131/25 79/134/27
f 74/129/23 80/139/24 76/127/21
f 76/127/21 75/131/25 73/128/22
f 80/130/24 79/134/27 75/131/25
f 78/133/26 77/137/28 79/134/27
f 74/136/23 73/128/22 77/137/28
f 77/137/28 73/128/22 75/131/25
f 74/129/23 78/140/26 80/139/24
s 11
f 84/141/14 81/142/8 82/143/4
f 88/144/10 83/145/13 84/146/14
f 86/147/1 87/148/9 88/149/10
f 82/150/4 85/151/7 86/152/1
f 87/148/9 81/142/8 83/145/13
f 82/153/4 88/144/10 84/146/14
f 84/141/14 83/145/13 81/142/8
f 88/144/10 87/148/9 83/145/13
f 86/147/1 85/151/7 87/148/9
f 82/150/4 81/142/8 85/151/7
f 87/148/9 85/151/7 81/142/8
f 82/153/4 86/154/1 88/144/10
s 12
f 92/155/10 89/156/13 90/157/14
f 96/158/1 91/159/9 92/160/10
f 94/161/4 95/162/7 96/163/1
f 90/164/14 93/165/8 94/166/4
f 95/162/7 89/156/13 91/159/9
f 90/157/14 96/167/1 92/155/10
f 92/155/10 91/159/9 89/156/13
f 96/158/1 95/162/7 91/159/9
f 94/161/4 93/165/8 95/162/7
f 90/164/14 89/156/13 93/165/8
f 95/162/7 93/165/8 89/156/13
f 90/157/14 94/168/4 96/167/1
s 13
f 100/169/10 97/170/13 98/171/14
f 104/172/1 99/173/9 100/174/10
f 102/175/4 103/176/7 104/177/1
f 98/178/14 101/179/8 102/180/4
f 103/176/7 97/170/13 99/173/9
f 98/171/14 104/181/1 100/169/10
f 100/169/10 99/173/9 97/170/13
f 104/172/1 103/176/7 99/173/9
f 102/175/4 101/179/8 103/176/7
f 98/178/14 97/170/13 101/179/8
f 103/176/7 101/179/8 97/170/13
f 98/171/14 102/182/4 104/181/1
s 14
f 108/183/14 105/184/8 106/185/4
f 112/186/10 107/187/13 108/188/14
f 110/189/1 111/190/9 112/191/10
f 106/192/4 109/193/7 110/194/1
f 111/190/9 105/184/8 107/187/13
f 106/195/4 112/186/10 108/188/14
f 108/183/14 107/187/13 105/184/8
f 112/186/10 111/190/9 107/187/13
f 110/189/1 109/193/7 111/190/9
f 106/192/4 105/184/8 109/193/7
f 111/190/9 109/193/7 105/184/8
f 106/195/4 110/196/1 112/186/10
s 15
f 120/197/9 115/198/1 116/199/7
f 119/200/10 113/201/4 115/198/1
f 119/200/10 118/202/13 117/203/14
f 113/201/4 116/204/7 115/198/1
f 114/205/8 117/203/14 118/206/13
f 120/207/9 114/208/8 118/202/13
f 120/197/9 119/200/10 115/198/1
f 119/200/10 117/203/14 113/201/4
f 119/200/10 120/207/9 118/202/13
f 113/201/4 114/209/8 116/204/7
f 114/205/8 113/201/4 117/203/14
f 120/207/9 116/210/7 114/208/8
s 16
f 124/211/4 127/212/29 123/213/8
f 122/214/1 125/215/9 126/216/10
f 128/217/30 125/218/9 127/219/29
f 128/217/30 122/214/1 126/216/10
f 127/220/29 121/221/7 123/222/8
f 124/211/4 121/221/7 122/214/1
f 124/211/4 128/217/30 127/212/29
f 122/214/1 121/223/7 125/215/9
f 128/217/30 126/216/10 125/218/9
f 128/217/30 124/211/4 122/214/1
f 127/220/29 125/224/9 121/221/7
f 124/211/4 123/222/8 121/221/7
s 17
f 131/225/8 134/226/14 135/227/13
f 136/228/10 130/229/4 132/230/1
f 135/231/13 133/232/7 131/233/8
f 137/234/9 132/230/1 133/235/7
f 133/236/7 130/229/4 131/237/8
f 135/231/13 136/228/10 137/238/9
f 131/225/8 130/229/4 134/226/14
f 136/228/10 134/226/14 130/229/4
f 135/231/13 137/238/9 133/232/7
f 137/234/9 136/228/10 132/230/1
f 133/236/7 132/230/1 130/229/4
f 135/231/13 134/226/14 136/228/10
s 18
f 145/239/31 140/240/32 141/241/33
f 143/242/34 138/243/35 142/244/36
f 138/243/35 144/245/37 142/244/36
f 145/246/31 139/247/38 143/248/34
f 143/248/34 144/245/37 145/246/31
f 138/243/35 141/249/33 140/240/32
f 145/239/31 144/245/37 140/240/32
f 143/242/34 139/250/38 138/243/35
f 138/243/35 140/240/32 144/245/37
f 145/246/31 141/251/33 139/247/38
f 143/248/34 142/244/36 144/245/37
f 138/243/35 139/252/38 141/249/33
s 19
f 153/253/39 148/254/40 149/255/41
f 150/256/7 147/257/42 146/258/43
f 153/253/39 147/257/42 151/259/1
f 146/260/43 152/261/44 150/262/7
f 151/259/1 152/263/44 153/253/39
f 146/260/43 149/255/41 148/264/40
f 153/253/39 152/265/44 148/254/40
f 150/256/7 151/259/1 147/257/42
f 153/253/39 149/255/41 147/257/42
f 146/260/43 148/264/40 152/261/44
f 151/259/1 150/266/7 152/263/44
f 146/260/43 147/257/42 149/255/41
s 20
f 158/267/45 155/268/46 154/269/47
f 155/268/46 161/270/48 157/271/49
f 154/272/47 160/273/50 158/274/45
f 159/275/51 160/276/50 161/270/48
f 161/270/48 156/277/52 157/271/49
f 154/272/47 157/271/49 156/278/52
f 158/267/45 159/275/51 155/268/46
f 155/268/46 159/275/51 161/270/48
f 154/272/47 156/278/52 160/273/50
f 159/275/51 158/279/45 160/276/50
f 161/270/48 160/280/50 156/277/52
f 154/272/47 155/268/46 157/271/49
s 21
f 165/281/14 162/282/8 163/283/4
f 169/284/10 164/285/13 165/286/14
f 167/287/1 168/288/9 169/289/10
f 163/290/4 166/291/7 167/292/1
f 168/288/9 162/282/8 164/285/13
f 163/293/4 169/284/10 165/286/14
f 165/281/14 164/285/13 162/282/8
f 169/284/10 168/288/9 164/285/13
f 167/287/1 166/291/7 168/288/9
f 163/290/4 162/282/8 166/291/7
f 168/288/9 166/291/7 162/282/8
f 163/293/4 167/294/1 169/284/10
s 22
f 177/295/1 172/296/9 173/297/10
f 174/298/8 171/299/18 170/300/17
f 171/299/18 177/295/1 173/297/10
f 173/297/10 170/301/17 171/299/18
f 175/302/4 176/303/7 177/295/1
f 174/304/8 172/305/9 176/306/7
f 177/295/1 176/307/7 172/296/9
f 174/298/8 175/302/4 171/299/18
f 171/299/18 175/302/4 177/295/1
f 173/297/10 172/305/9 170/301/17
f 175/302/4 174/308/8 176/303/7
f 174/304/8 170/301/17 172/305/9
